<svg id="objects" xmlns="http://www.w3.org/2000/svg" viewBox="0 0 311.21 156.5"><defs><style>.cls-1{fill:#fff}</style></defs><path class="cls-1" d="M56.13 50.52c1.44.09 2.56.69 2.63 2.44a2.81 2.81 0 0 1-2.95 3 2.38 2.38 0 0 1-2.48-2.68 2.63 2.63 0 0 1 2.8-2.76zM258 53.3a2.38 2.38 0 0 1-2.5 2.7 2.8 2.8 0 0 1-2.94-2.81 2.46 2.46 0 0 1 2.76-2.63A2.61 2.61 0 0 1 258 53.3zM242 72.58c-1.89 2.76-1.26 4.09 1.84 4.41.66.06 1.59-.12 1.52.9s-1 .82-1.65.86a4.13 4.13 0 0 1-4.49-3.75c0-2.68 2.32-5.17 4.73-5.08a4.18 4.18 0 0 1 4.05 4.47c-.08 1.45-.72 1.82-2 1.34a10.81 10.81 0 0 1-4-3.15zM237.22 72.51c-1.36.5-2.27.23-2.78-.73-.62-1.15.52-1.51 1.14-2.09 1.06-1 2.24-1.86 2.73-3.3-1.91-1.8-2.28-1.81-4.07-.11-.66.62-1.31 1.24-2 1.8a1.47 1.47 0 0 1-2.23 0c1.34-1.93 3.47-3.06 4.9-4.86 0-1-1.63-1.17-1.27-2.5 1.6-.53 2.39.6 2.92 1.73a2.44 2.44 0 0 0 1.26 1.43c2.66 1.25 2.87 2.73.85 5.17-.81 1.01-2.4 1.63-1.45 3.46zM79.62 64.57c-.44-1.28-.9-2.56-1.33-3.86-.22-.67-.45-1.45.49-1.73.78-.23 1.07.41 1.28 1 .66 2 1.36 4.07 2 6.13.21.69.52 1.56-.36 2s-1.31-.13-1.85-.56a5.11 5.11 0 0 0-2.22-1.35c-.31 1.17.42 2.12.61 3.15a1.56 1.56 0 0 1-.4 1.71c-.56.43-1 .08-1.54-.16a28.72 28.72 0 0 1-5.14-2.72c-.46-.36-.9-.78-.52-1.39s1-.43 1.49-.19a15.07 15.07 0 0 0 3.64 1.72 12.07 12.07 0 0 0-.95-4 1.13 1.13 0 0 1 .1-1.32c.5-.47 1-.23 1.51.08l2.8 1.75zM63.74 75.45c-.65.4-.52 1.33-1.5 1.37a1.71 1.71 0 0 1 .32-2.82c1.73-1 2-4.12 4.88-3.49 2.15.47 3.58 2 5 3.48.13 0 .28.13.38.09.6-.2 1.28-1 1.8-.17s-.48 1.61-1 2.29-1.16.39-1.62-.2a15.36 15.36 0 0 0-3.29-3.15c-1-.64-2-1.18-2.92 0s-.07 1.87.74 2.56A7.76 7.76 0 0 1 68.87 78c.43 1 1.4.73 2 1.17a2 2 0 0 1-1.07 2.45c-1.18.46-1.5-.74-1.86-1.49-.89-1.96-2.6-3.13-4.2-4.68z"/><path class="cls-1" d="M1.34 156.09c.47.09.94.25 1.41.33l.47.08h13.22v-.18c40.17.46 80.33-.51 120.58-.21 0 .13 0 .26.05.39h2.73a20.81 20.81 0 0 1-.06-2.86c.41-7.92 8.63-15.88 16.42-15.44 9.8.55 15.64 8 15.44 18.14v.16h136.22l.36-.06c1.12-.18 3.07.09 3-1.44s-2-1.18-3.1-1.4c-5.57-1.07-11.15-2-16.88-3.08a98.26 98.26 0 0 0-3.61-30.7c1.47-.52 2.64-.84 3.68.31.4.44 1 .75 1.47.28a41 41 0 0 1 5.26-3.72c.44-.29.57-.77.12-1.49a11.66 11.66 0 0 1-4.36-.09c-1.88-.56-3.25-.33-4.52 1.45s-2.08 1.33-2.7-.68c-1.3-4.24-2.49-8.53-4-12.7a181.84 181.84 0 0 0-7.2-17.68c1.13-.89 2.12-1.39 3.36-.62a1 1 0 0 0 1.6-.33 24.52 24.52 0 0 1 3.63-4.55 1 1 0 0 0 .25-1.33c-.43-.66-1-.33-1.46 0a5.38 5.38 0 0 1-2.79.74c-2.14 0-3.75.51-4.36 3-.38 1.5-1.34 1.51-2.29.12-2.58-3.79-5.3-7.48-7.88-11.26a82.73 82.73 0 0 0-15.25-16.72C243.44 48.9 236 44.3 228.47 39.84l-4-2.35c.31-2.53 4.43-.84 3.89-4.09-.32-1.94 1.56-3.79.63-6.13-1.57 1-2.36 2.49-3.82 3.15-1.75.8-2.88 1.95-2.26 4.1a1.2 1.2 0 0 1-.65 1.57 208 208 0 0 0-30.54-13.99 2 2 0 0 1 1.49-2c.61-.16 1.33-.4 1.13-1.22a34.91 34.91 0 0 1-.76-6.19c0-.48-.27-1-.89-1a.91.91 0 0 0-.84.81 4.43 4.43 0 0 1-1.24 2.36c-1.83 1.79-2.57 3.71-1.08 6.06.05.07-.07.23-.18.53-3.21-.69-6.43-1.45-9.68-2.06-5.94-1.13-12-1.64-18-2.19-1-.1-1.83-.29-2-1.61-.58-4.89-1.55-9.71-2.59-14.52-.08-.72-.2-1.15-1.4-1.07-1 .07-1.32.17-1.48 1-.83 4.57-1.8 9.11-2.45 13.7-.26 1.82-.91 2.46-2.67 2.59a145.15 145.15 0 0 0-25.89 3.95c-.46.12-.93.33-1.45-.08a3.37 3.37 0 0 1 .35-1.14c1.27-1.69.51-3-.71-4.26a12.81 12.81 0 0 1-1.64-2.39c-.35-.62-.19-1.59-1.25-1.69-.88.38-.78 1.19-.85 1.94a28.59 28.59 0 0 1-.39 3.72c-.3 1.4-.55 2.56 1.37 3 .69.15 1 .92.93 1.81A206.35 206.35 0 0 0 88.87 36c-.81-.94-.42-1.81-.51-2.61-.06-.53.59-1.2 0-1.57a31.05 31.05 0 0 1-5.83-4.59c-1 .84-.64 1.58-.46 2.31a21.65 21.65 0 0 1 .77 3.23c.16 1.59.16 3.1 2.48 2.87.66-.06 1.15.69 1.53 1.59-.73.47-1.34.93-2 1.28-5.37 2.81-10.27 6.34-15.34 9.63A85.78 85.78 0 0 0 46 71.1c-2.68 3.81-5.38 7.6-8 11.43-.93 1.35-1.91 1.14-2.17-.17-.54-2.7-2.42-2.92-4.53-3a5.41 5.41 0 0 1-2.59-.7c-.46-.28-1.05-.63-1.49 0s-.1 1.08.3 1.5a22.46 22.46 0 0 1 3.45 4.42 1 1 0 0 0 1.58.42c1.31-.79 2.34-.33 3.39.62a201.45 201.45 0 0 0-11.09 30.08c-.19.68 0 1.69-1 1.89s-1.56-.7-2.23-1.29-.59-1.68-1.53-1.51a24.23 24.23 0 0 1-6.94.55c-.33.63-.29 1 0 1.23 1.81 1.39 3.86 2.44 5.56 4 .43.39.95.08 1.29-.29 1.1-1.22 2.3-.93 3.57-.38a3.56 3.56 0 0 1 0 .71 98.43 98.43 0 0 0-3.43 28.83c0 1.06-.51 1.3-1.34 1.44q-3.18.54-6.34 1.12c-3.68.68-7.35 1.38-11 2.07-.75.02-1.46.21-1.46.93s.69 1 1.34 1.09zM294.15 117c-1 1.08-1.77 2.16-3.19.53.76-1.53 1.9-.79 3.19-.53zm-135.61 10.3c3.81-5.87 7.46-11.84 11.18-17.76a2.18 2.18 0 0 1 1.41-1.31c-5 8.41-9.52 16.65-13.65 25.14a7.55 7.55 0 0 1 1.06-6.07zm.46 7.7a129.26 129.26 0 0 1 9-16.9l-8.37 17.2zm9.64 4.91c-2.8-1.73-2.84-1.75-1.39-4.37 1.68-3 3.21-6.14 4.64-9.3a23.06 23.06 0 0 1 7.35-9.13c12.54-9.29 25-18.67 37.52-28 .55-.4 1.11-.77 1.66-1.16.09.11.18.21.26.32zm-11.08-61.82c2.68-4.28 5.39-8.53 8.29-13.11.58 1.29.66 2.19.09 3.08q-3.9 6.14-7.82 12.27a.64.64 0 0 1-.73.42 2.8 2.8 0 0 1 .17-2.66zm-.29-3c2-4.83 5.14-9 8.14-13.22a80.55 80.55 0 0 1-8.14 13.26zm20.54 58.77c1.34-1.11 9.61-2.24 12.56-1.54zm11.23.69c-4 1.38-8.23 1-12.3 1.19L189 134zm-8.39-3.8c3.77-2.06 8-1.57 12.22-2.37-.17 1.35-.74 1.92-1.84 2-3.44.3-6.89.2-10.38.41zM208.59 110c7.49 8.47 11.33 18.35 14.68 28.92l-31.35-5.33zm-1-2.21c-1.66 2.42-4.15 1.52-6.26 2.17l-.17-.68zm-3.38-1.31c1.55-1.84 3.84-1.52 5.88-1.93-1.6 1.75-3.84 1.53-5.87 1.96zM216 116.75c-1-1.69-2.11-3.36-3.16-5a17.36 17.36 0 0 1 3.07-2.84 78.73 78.73 0 0 1 5 9c-3.05 1.52-3.36 1.43-4.91-1.16zm5.89 3.24l3.31 6.8-3.47 1.42c-1.11-2.4-2.14-4.66-3.2-7 .91-.81 2.19-.55 3.31-1.21zm.83 11.31c-.29-2.19 2-1.68 3.26-2.61 1.06 2.73 2 5.15 3 7.82l-4.44.42a30.9 30.9 0 0 1-1.87-5.63zm-6.5-25.3a34.11 34.11 0 0 0-2.52-3.2l16.71-23.7c3.54 3.46 7.21 6.57 9.82 10.54 6.24 9.53 11.79 19.46 14.94 30.51 2.14 7.51 4.54 15 5.46 22.8.08.68.19 1.35.32 2.24-2.37.13-4.5-.54-6.63-.89-7-1.13-14-2.43-21.08-3.59a1.88 1.88 0 0 1-1.81-1.55A136.43 136.43 0 0 0 216.22 106zm-29.91-22.6a64.19 64.19 0 0 0-14.47-4.4c-.88-.15-1.54-.2-1.72-1.33-1.48-9.17-3-18.34-4.54-27.51a1.23 1.23 0 0 1 .08-.4c13.35-.45 51 13.22 62.47 27.32l-23.46 17.49a83.5 83.5 0 0 0-18.36-11.17zm13.59 9.9a11.34 11.34 0 0 1-3 4.19 60.84 60.84 0 0 0-6.9-5.17l1.63-4.19c3.09 1.17 5.58 3.24 8.27 5.17zM189.66 87a7.59 7.59 0 0 1-1.7 4c-2-1.12-4-2.2-6.06-3.32a11.72 11.72 0 0 1 1-3.78zm-16.37-5.83a30.86 30.86 0 0 1 7.39 2c-.39 1.26-.74 2.42-1.19 3.91-1.91-.75-3.68-1.32-5.33-2.15s-.72-2.4-.87-3.77zm-5.36-3.9a2.15 2.15 0 0 1 .14 2.49c-3.31 5-6.81 9.89-10.56 14.79-.17-1.55 7.17-13.61 10.42-17.29zm-10.57 9.48l9.52-14.4.63.4L157.8 87zm11.91 0l.69.42c-2.71 4.91-6.26 9.3-9.09 14.13l-.45-.27zM170 90l.64.32-13.18 20.81c-.05-2.19 9.42-17.7 12.54-21.13zm-12.4 6.88q4-5.41 8-10.8l.28.28q-3.82 6-7.67 12c-.18.28-.41.52-.81 1a2.79 2.79 0 0 1 .2-2.48zm.13 22.19q6.57-10.83 13.18-21.64c.06-.11.21-.17.48-.37a2.37 2.37 0 0 1 0 2.49l-13.77 21.87a2.08 2.08 0 0 1 .11-2.35zm13.91-32.27c4-1.22 20.11 7.31 25.47 13.42l-20.41 15.16c-1.7-9.73-3.39-19.16-5.06-28.58zm125.55 67.08H174.32a33.27 33.27 0 0 0-1.85-7.61c6.28-2.79 11.57-7.22 17.92-9.71 2.32-.9 4.64-.41 7 0l75.74 12.93c8.01 1.37 16.04 2.78 24.06 4.39zm-11.26-32.64a92 92 0 0 1 3.31 28 3.82 3.82 0 0 1-.2.79c-1 .19-1.5-.18-1.48-1.18a95.23 95.23 0 0 0-3.94-28.06c1.11-.46 1.92-1.03 2.31.45zm-12.32-34.57A191 191 0 0 1 285 117.82c-.49.61-1.08.53-1.75.8-2.08-5.22-3.07-10.7-5.23-15.77s-3.91-10.2-6.39-15a2.44 2.44 0 0 1 1.98-1.18zM252 58.57c7.78 7.93 15.35 15.89 20 26.12a2.7 2.7 0 0 1-1.82 1c-6.28-8.58-11.94-17.69-20.13-25.07zM223.3 39a210.78 210.78 0 0 1 26.81 17.49 4.24 4.24 0 0 1-2 2.15C240 51.91 231 46.42 221.81 41.1a4.39 4.39 0 0 1 1.49-2.1zm-32.04-15a190.16 190.16 0 0 1 30.13 13.72l-1.51 2.18a209.47 209.47 0 0 0-29.27-13.58 2.9 2.9 0 0 1 .65-2.32zm-1.47 4.15a182.13 182.13 0 0 1 29 13.38c-1.68 3.08-3.29 6-4.92 9-.8 1.45-1.66 2.88-2.46 4.34-.34.62-1.1 1.42-.09 2s1.32-.53 1.69-1.13c1.39-2.24 2.73-4.51 4.05-6.8 1.17-2 2.29-4.09 3.42-6.11 7 3.08 23.78 14.19 26.58 17.76-.87.66-1.86 1.31-2.73 2.1-.6.54-.9 1.33-.15 2a1.31 1.31 0 0 0 1.87-.21c.86-.79 1.7-1.61 2.7-2.56 7.5 7.62 14.88 15.2 19.51 25.24l-9.78 6.76-2.39 1.66c-.5.36-1.21.73-.81 1.45.49.87 1.27.35 1.81 0 2.35-1.47 4.68-3 7-4.53 1.77-1.19 3.51-2.43 5.57-3.86 1.17 2.57 2.34 4.9 3.34 7.36a211.59 211.59 0 0 1 7.61 21.35c.4 1.39.22 2-1.2 2.39-4.25 1.27-8.47 2.68-12.69 4-.69.22-1.77.34-1.43 1.37s1.33.52 2 .31c3.93-1.15 7.84-2.36 11.76-3.55.79-.24 1.58-.44 2.56-.71a85.69 85.69 0 0 1 3.83 28.39l-11.81-2c-2.79-.48-5.57-1.2-8.39-1.42-2-.17-2.48-1.11-2.69-2.84a117.17 117.17 0 0 0-7.41-29.16C250 101.07 243.19 89 233 78.58c-12.09-12.36-26.54-19.89-42.44-25.49a107.59 107.59 0 0 0-24-5.69c-1-.1-1.53-.41-1.7-1.42-1.25-7.53-2.52-15-3.85-22.93a148.59 148.59 0 0 1 26.88 4.43c-.86 4.6-1.68 9-2.5 13.43-.18 1-.34 1.91-.52 2.86-.12.58-.2 1.2.46 1.43.86.3 1.11-.47 1.24-1 .64-2.7 1.24-5.4 1.79-8.12.49-2.55.91-5.08 1.43-7.9zM162.2 41.84c-.88 2.33-2.63 4.12-4.32 6l3.78-6.29zm-1.62-22.44a165.12 165.12 0 0 1 21.56 2.65c1.69.35 3.38.77 5.09 1s2 1 1 2.46c-2.46-.56-4.95-1.12-7.43-1.7a119 119 0 0 0-18.5-2.77c-.91-.04-1.92.04-1.72-1.64zm.27 15.87c0 2.76-2.18 4.43-3.4 6.6-.13-1.87.96-4.03 3.4-6.6zm2 12.4c-.33 4.13-3.58 6.74-5.51 10 .66-3.94 3.49-6.76 5.52-10zm.62 3.57c.45 1.36.68 2.16.22 2.9-2 3.18-4.06 6.34-6.09 9.51l-.63-.32c.69-4.64 4.51-7.58 6.51-12.09zm.55 4.44c1.6 3.16 1.35 4.25-1.91 7.55l1.35-3.1c-1.65 1-2.34 2.55-3.29 3.95s-1.76 2.77-2.64 4.16l-.61-.35zm7.83 46.08l.67.42q-7.44 11.8-14.87 23.63l-.73-.45 14.94-23.6zM17.21 117c1.22-.26 2.3-1 3.14.51-1.26 1.65-2.12.72-3.14-.51zm7.11 35.06c2.17-.47 3.24.81 4.85 1.73-2.17.37-3.24-.79-4.85-1.72zM31 151c1.56 0 3.12.88 5.28 2.8-1.92-.52-3.47-1.8-5.28-2.8zm6.06-1.06c2.93.15 4.84 2.32 7.11 3.82-2.78-.36-4.83-2.25-7.07-3.83zm6.21-.92l.24-.51c2.74 1.07 4.83 3.18 7.13 5zm5.85-.91c.8-.63 1.42-.79 2.11-.34 2.95 1.91 5.92 3.81 8.7 6-4.08-.86-7.06-3.77-10.77-5.67zm85.47-32.72l-20.49-15.25c7.29-6.91 15.7-11.3 25.7-14.08-1.8 10.06-3.45 19.54-5.17 29.32zm1.19 17c-1.56-4.14-1.21-8.48-1.68-12.74h.62q.57 6.3 1.1 12.68zm-3.2-2.81c-1.6-4.07-1.17-8.4-1.7-12.86 1.16.38 1.88.82 1.89 1.75.09 3.64.06 7.33-.15 11.05zm-7.44-9.93c-.32-2.58-.63-5.15-.94-7.73 1.1 2.42 1.03 5.08.98 7.67zM111.38 93.4a38.73 38.73 0 0 1 8.28-5.34l1.65 4.18a63.06 63.06 0 0 0-6.81 5.23 11.2 11.2 0 0 1-3.12-4.07zm1.54 15.14l-.65.15-1.27-6.78c2.25 1.86 1.25 4.43 1.92 6.63zm10.46-22.39c1.76-.54 3.27-1.76 5.12-2.15a11.43 11.43 0 0 1 .92 3.6l-5.87 3.26c-.83-.28-.9-1.06-1.24-1.63-.9-1.46-.82-2.5 1.07-3.08zm7.16-3a38.75 38.75 0 0 1 7.23-2c.76 2.84.54 3.3-2 4.33L132 87c-.82-1.19-.77-2.55-1.46-3.86zm9-4.15a68 68 0 0 0-26.69 11.07c-2.07 1.39-4.06 2.89-6.26 4.46L83.11 77a48.1 48.1 0 0 1 7.1-6.52 122.62 122.62 0 0 1 29.85-15 144.19 144.19 0 0 1 15.76-4.6c3.2-.73 6.43-1 10-1.49-.77 4.8-1.48 9.31-2.22 13.81-.77 4.65-1.62 9.29-2.35 14-.16 1.09-.47 1.59-1.71 1.8zm-30 26.33c-1.77-1.7-1.36-4-1.69-6.09 1.58 1.76 1.39 3.99 1.66 6.08zM88.1 133.19c-.38 1.11-.75 2.23-1.14 3.34 0 .11-.18.2-.34.37l-4.13-.35a56.21 56.21 0 0 1 2.84-7.55c3.67.71 3.83 1 2.77 4.19zm-1.93-6.3l3.22-6.76 3.51.89-3.2 7.13zm16.37-17.11c5.71 8.07 11.18 15.79 16.86 23.83l-31.3 5.33c3.13-10.65 7.45-20.34 14.44-29.16zm-5.23 3.89c-.65 1-1.26 2-1.88 3-1.68 2.73-1.67 2.73-5 1.32a91.67 91.67 0 0 1 6.38-11.33c2.84 3.53 2.83 3.53.5 7.01zm-16.89 23.71c-.8 2.45-1.82 3.34-4.22 3.7-8 1.23-16 2.68-23.94 4a2.62 2.62 0 0 1-1.79-.1 71.77 71.77 0 0 1 1.77-10.52A124.29 124.29 0 0 1 71 89.75c2.71-4 6.38-7.18 9.93-10.68l16.57 23.54a127.63 127.63 0 0 0-17.08 34.77zm-18.29 15.69c-2.89-2-5.84-3.92-8.87-5.95.93-.3 1.71-.66 2.51-.16l10.52 6.73a4.44 4.44 0 0 1-4.16-.62zm8.05 1.14l-12.92-7.7c3-1.34 5.2-.8 7.19 1.5-1.38 0-2.28-1.16-3.78-.82l9.86 6.4c-.12.2-.23.41-.35.62zm-6.9-8.6c1.52-.34 11.81 5.8 14 8.37-4.92-2.28-9.23-5.55-14-8.37zM80 153.42q-6.32-4-12.61-8.09a3.43 3.43 0 0 1-.49-.62 3.11 3.11 0 0 1 2.83 0q6.56 4.23 13.09 8.48c.15.09.22.31.38.55a3.64 3.64 0 0 1-3.2-.32zm9.2.61L74 143.84l.4-.61 15.1 10.32zm-10.3-11.21a2.23 2.23 0 0 1 2.51-.13c5.15 3.47 10.18 7.12 15.37 11.1-1.78-.06-13.95-7.64-17.9-10.97zm19.85 10.69c-5-3.94-10.2-7.64-15.21-11.58 5.8 4.11 12 7.62 18.27 11.84-1.39.23-2.26.39-3.08-.26zm-10.27-12c.16-.25.31-.5.46-.75l13.84 9.2a122 122 0 0 1-14.32-8.49zm3.12-.74l.35-.66 21.42 13.71c-2.11.05-17.99-9.72-21.79-13.09zm29.5 12.7c-7-4.68-14.34-8.73-21.45-13.2-.28-.18-.54-.41-1-.75a2.11 2.11 0 0 1 2.57-.06q10.77 6.9 21.55 13.82a1.94 1.94 0 0 1 .4.5 1.84 1.84 0 0 1-2.09-.35zm6.44.94L103 138.69c1.75 0 20.81 11.64 24.86 15zm3.28-.93c-7.67-4.75-15.41-9.38-22.77-14.64 9 5.17 18.06 10.29 27.49 14.78-1.65.38-3.28.72-4.74-.18zM116.1 141c6.87 3.4 13.7 6.88 20.59 10.25-2.16-.01-17.16-7.6-20.59-10.25zm1.74-4.77c3.75.16 10.37 3.48 19.63 9.82-6.6-2.83-12.61-6.73-19.63-9.84zm22 7.77c-4.84-3.74-10.51-6-16.06-8.53a4.72 4.72 0 0 1-1.92-1.57L89.41 88.48l.32-.24 51.8 53.49a4.38 4.38 0 0 1-1.7 2.27zm-3.43-22l.6-.07c1.13 3.71.75 7.59.62 11.37q-.63-5.71-1.23-11.36zm16.64-102.79a4.13 4.13 0 0 1 .79-2v117.6c-1.63.6-3.45 1.24-5.25 1.93-.93.35-1.42.17-2-.78-3.14-5.48-5.41-11.41-8.72-16.8a7.84 7.84 0 0 1-.83-5.59q8.1-47.17 16.01-94.36zm-29 3.84a187.89 187.89 0 0 1 25.85-3.65 4.06 4.06 0 0 1 .78.1c.26 1.08-.21 1.47-1.15 1.53a134.44 134.44 0 0 0-26.42 4.55c-.97-1.52-.72-2.15.96-2.53zM123 35.91c.55 2.64 1.09 5.29 1.7 7.93.15.62.28 1.56 1.22 1.37s.65-1 .53-1.71c-1-5.24-1.94-10.48-3-16a146 146 0 0 1 26.85-4.43c-.72 4.36-1.39 8.44-2.07 12.52-.55 3.28-1.15 6.56-1.64 9.85a2 2 0 0 1-2.09 2c-17.58 2-33.69 8.42-49 17a49.2 49.2 0 0 0-11.7 9c-1 1.08-2 2.32-3.55 2.78-1 .27-.55 1.52-1.33 2.18-11 9.19-16.58 21.87-22.4 34.41a48.37 48.37 0 0 0-2.32 7.33c-2.25 7.93-4.63 15.84-5.6 24.06-.11 1-.4 1.66-1.55 1.84-6.49 1.05-13 2.16-19.46 3.24-.47.08-1 0-1.73.09-.45-9.69 1.15-18.9 3.81-28.09 2.34.29 4.35 1.24 6.46 1.86 2.66.77 5.32 1.58 8 2.32.69.19 1.68.6 1.95-.44.22-.87-.72-1-1.37-1.25l-12.29-4c-.65-.21-1.29-.45-2.09-.72a178.3 178.3 0 0 1 11.25-30.27 48.33 48.33 0 0 1 5.74 3.77c2.26 1.49 4.52 3 6.81 4.41.56.35 1.33.9 1.85.13s-.28-1.21-.84-1.59c-4-2.81-8.08-5.6-12.08-8.37 4.58-10 11.93-17.57 19.52-25.21 1 .91 1.85 1.77 2.77 2.59a1.26 1.26 0 0 0 1.86.08 1.2 1.2 0 0 0-.14-1.85c-.85-.81-1.82-1.5-3.09-2.54 8.55-7 17.46-12.24 26.41-17.4A4.55 4.55 0 0 1 92.1 45c2 3.42 3.93 6.86 5.91 10.28a10.67 10.67 0 0 0 1 1.33.79.79 0 0 0 1.1.25.81.81 0 0 0 .26-1.1c-.5-1-1-2-1.58-2.93l-6.3-11.23a186.48 186.48 0 0 1 28.78-13.37c1.03 2.5 1.15 5.14 1.73 7.68zm-3-11.86a2.85 2.85 0 0 1 .77 2.26 207.26 207.26 0 0 0-29.19 13.58 4.87 4.87 0 0 1-1.49-2.22A186.91 186.91 0 0 1 120 24.05zM88 39a4.61 4.61 0 0 1 1.61 2.2A155 155 0 0 0 76 49.37c-4.39 2.91-8.83 5.71-12.69 9.28a4.35 4.35 0 0 1-2.13-2.14A211.68 211.68 0 0 1 88 39zM59.18 58.67a4.67 4.67 0 0 1 1.92 2c-8 7.22-13.7 16.34-20 24.93-.87 0-1.32-.54-1.85-.84C43.9 74.44 51.58 66.6 59.18 58.67zM37.72 86.58a10 10 0 0 1 1.1.41 9.68 9.68 0 0 1 1 .67 186.11 186.11 0 0 0-11.4 30.74 2.38 2.38 0 0 1-2-.5 191.55 191.55 0 0 1 11.3-31.32zm-15.16 49.11a130.67 130.67 0 0 1 2.66-13.88c.32-1.39.84-2 2.26-1a7.36 7.36 0 0 1-.58 3A91.16 91.16 0 0 0 23.77 148c0 .93.23 2.06-1.66 2a96.8 96.8 0 0 1 .45-14.31z"/></svg>